{
  "test_behavior": "FFmpeg metadata extraction sets `channels` to `[\"2\"]` for a stereo audio stream whose stream identifier includes a language suffix such as `Stream #0:0(eng)`.",
  "klass": "codebase",
  "constant": null,
  "r2_prose_clause": null,
  "gold_anchor": "audioStreamRx = regexp.MustCompile(`^\\s{2,4}Stream #\\d+:\\d+.*: (Audio): (.*), (.* Hz), (mono|stereo|5.1),*(.*.,)*(.(\\d+).kb/s)*`)",
  "test_assertion": "It(\"parse channels from the stream with lang\", func() {\n\t\t\tconst output = `\nInput #0, flac, from '/Users/deluan/Music/iTunes/iTunes Media/Music/Compilations/Putumayo Presents Blues Lounge/09 Pablo's Blues.m4a':\n  Duration: 00:00:01.02, start: 0.000000, bitrate: 1371 kb/s\n    Stream #0:0(eng): Audio: aac (LC) (mp4a / 0x6134706D), 44100 Hz, stereo, fltp, 262 kb/s (default)`\n\t\t\tmd, _ := e.extractMetadata(\"tests/fixtures/test.mp3\", output)\n\t\t\tExpect(md).To(HaveKeyWithValue(\"channels\", []string{\"2\"}))\n\t\t})",
  "R1": "The FFmpeg parser must recognize audio stream lines whose stream identifier includes a language suffix like `Stream #0:0(eng):` and extract stereo as 2 channels.",
  "R2": "A prose-faithful implementation could parse the shown ordinary FFmpeg audio stream form `Stream #0:0: Audio: ... stereo ...` without supporting language-suffixed stream identifiers.",
  "why_R2_fails": "R2 fails because the regex or parser would not match `Stream #0:0(eng): Audio: ...`, so `channels` would not be set to `[\"2\"]`."
}